<svg width="380" height="181" viewBox="0 0 380 181" fill="none" xmlns="http://www.w3.org/2000/svg">
<path d="M372.748 44.8519C376.41 44.8519 379.462 41.8761 379.462 38.1373V33.9406C379.462 30.278 376.486 27.2259 372.748 27.2259H364.583C363.973 27.2259 363.515 27.3022 362.904 27.4548L362.523 8.3789C362.447 4.56373 359.318 1.58789 355.656 1.58789C355.427 1.58789 355.274 1.58789 355.121 1.58789L282.938 7.08174L267.067 8.3026L22.8199 26.9206C19.2337 27.2258 16.4104 30.2017 16.4104 33.8643L16.6394 55.0766C16.2578 55.0003 15.7237 55.0003 15.3422 55.0003H7.10143C3.43886 55.0003 0.386719 57.9761 0.386719 61.715V65.9117C0.386719 69.5743 3.36256 72.6264 7.10143 72.6264H15.2659C15.8 72.6264 16.2578 72.5501 16.792 72.3975L17.0972 107.955C16.4867 107.726 15.8763 107.65 15.2659 107.65H7.10143C3.43886 107.65 0.386719 110.626 0.386719 114.364V118.561C0.386719 122.224 3.36256 125.276 7.10143 125.276H15.2659C15.9526 125.276 16.6394 125.199 17.2498 124.971L17.4787 147.099C17.4787 150.914 20.6834 153.966 24.346 153.966C24.5749 153.966 24.7275 153.966 24.9564 153.966L320.938 130.159L343.6 128.328L358.326 127.107C361.989 126.802 364.812 123.75 364.736 120.163L364.202 97.6539C364.278 97.6539 364.431 97.6539 364.507 97.6539H372.671C376.334 97.6539 379.386 94.6781 379.386 90.9392V86.7425C379.386 83.08 376.41 80.0278 372.671 80.0278H364.507C364.278 80.0278 364.125 80.0278 363.896 80.0278L363.21 44.6993C363.591 44.7756 364.125 44.7756 364.583 44.7756H372.748V44.8519ZM344.286 113.22L326.126 114.746L32.3579 138.247L31.4422 41.2657L257.148 24.0974L271.874 23.0292L273.095 22.9529L283.473 22.1898L298.352 21.1216L299.344 21.0453L321.777 19.3666L339.784 17.9931L347.644 17.3827L349.551 112.991L344.286 113.22Z" fill="#F2C61A"/>
<path d="M321.777 11.5833V98.6455C321.777 99.3322 322.388 100.019 323.151 100.019H338.488C339.175 100.019 339.861 99.4085 339.861 98.6455V6.08941C339.861 5.17377 338.946 4.48703 338.03 4.79224L322.693 10.2098C322.083 10.4387 321.777 10.9728 321.777 11.5833Z" fill="white"/>
<path d="M313.384 41.036C313.384 40.273 312.698 39.6626 311.858 39.7389L296.369 41.2649C295.682 41.3412 295.148 41.8754 295.148 42.5621V85.5972C295.148 86.284 294.614 86.8944 293.927 86.8944L287.365 87.5811C286.602 87.6574 285.839 87.047 285.839 86.284L285.534 42.6384C285.534 41.9517 284.923 41.3413 284.16 41.3413H273.401C272.715 41.3413 272.028 41.9517 272.028 42.7147V88.1916C272.028 88.8783 271.494 89.4887 270.807 89.4887L266.305 90.0229C265.542 90.0992 264.779 89.4887 264.779 88.7257V42.3332C264.779 41.6465 264.169 40.9597 263.406 40.9597H249.747C249.061 40.9597 248.45 41.5702 248.374 42.2569L247.763 90.7859C247.763 91.4726 247.229 92.0067 246.543 92.083L239.141 92.8461C238.073 92.9224 237.31 91.8542 237.844 90.8622L240.743 85.4447C240.82 85.2157 240.972 85.0631 240.972 84.8342V66.2162C240.972 65.8347 240.743 65.3005 240.362 65.1479L213.808 48.2086C213.503 47.9797 213.198 47.9797 212.893 47.9797L186.568 51.1081C185.881 51.1844 185.347 51.7948 185.347 52.4053V69.6498C185.347 70.4129 186.034 71.0233 186.873 70.947L207.475 68.3527C207.857 68.2764 208.162 68.429 208.467 68.6579L221.057 78.3484C221.668 78.8825 221.744 79.7219 221.286 80.3323L207.094 96.2034C206.865 96.5087 206.559 96.585 206.178 96.585L178.861 99.5608C178.098 99.6371 177.335 99.0267 177.335 98.2636V63.6982C177.335 63.0114 176.725 62.3247 176.038 62.3247H159.785C159.099 62.3247 158.412 62.9351 158.412 63.6982V100.171C158.412 100.934 157.802 101.545 157.115 101.545H152.918C152.231 101.545 151.621 100.934 151.621 100.171V57.8991C151.621 57.1361 150.934 56.5256 150.095 56.6019L99.7347 62.0958C99.0479 62.1721 98.5138 62.7062 98.5138 63.393V84.9105C98.5138 85.6736 97.9034 86.284 97.1404 86.284L88.0602 86.2077C78.6749 86.1314 71.0446 93.7617 71.0446 103.223V111.006C71.0446 111.693 70.5105 112.227 69.8237 112.303L63.7194 113.066C62.9564 113.143 62.1934 112.532 62.1934 111.769C62.1934 111.769 61.8882 58.8147 61.8119 41.1886C61.8119 40.273 60.8962 39.6626 60.1332 39.8915C56.2417 40.9597 44.491 44.3934 44.491 44.3934C43.8805 44.6223 43.499 45.0801 43.499 45.6905V133.592C43.499 134.355 44.1858 134.966 45.0251 134.889L312.621 104.215C313.308 104.139 313.842 103.529 313.842 102.918L313.384 41.036ZM97.293 108.641C97.293 109.251 96.7588 109.709 96.2247 109.709H91.4176C90.8072 109.709 90.3493 109.175 90.3493 108.641V98.3399C90.3493 97.7295 90.8835 97.2717 91.4176 97.2717H96.2247C96.8351 97.2717 97.293 97.8058 97.293 98.3399V108.641ZM130.561 104.978C130.561 105.741 129.951 106.504 129.035 106.504H118.276C117.513 106.504 116.75 105.818 116.75 104.978V77.8906C116.75 77.1276 117.361 76.5171 118.276 76.5171H129.035C129.798 76.5171 130.561 77.1276 130.561 77.8906V104.978Z" fill="white"/>
<path d="M281.489 15.8559H268.365C267.678 15.8559 266.991 15.2454 266.991 14.5587V2.19755C266.991 1.51082 267.602 0.900391 268.365 0.900391H281.489C282.176 0.900391 282.862 1.51082 282.862 2.19755V14.4824C282.862 15.2454 282.252 15.8559 281.489 15.8559Z" fill="white"/>
<path d="M271.722 36.4576H258.598C257.911 36.4576 257.225 35.8471 257.225 35.0841V22.7229C257.225 22.0362 257.835 21.4258 258.598 21.4258H271.722C272.409 21.4258 273.096 22.0362 273.096 22.7229V35.0841C273.019 35.8471 272.409 36.4576 271.722 36.4576Z" fill="white"/>
<path d="M297.971 32.8715H284.694C284.007 32.8715 283.32 32.2611 283.32 31.5743V19.2132C283.32 18.5264 283.931 17.916 284.694 17.916H297.818C298.505 17.916 299.191 18.5264 299.191 19.2132V31.5743C299.268 32.2611 298.657 32.8715 297.971 32.8715Z" fill="white"/>
<path d="M322.387 134.203L342.302 132.677C342.989 132.601 343.523 132.066 343.523 131.38V126.878C343.523 126.191 342.913 125.504 342.15 125.504H332.002C331.238 125.504 330.628 124.894 330.628 124.131C330.704 121.537 331.391 116.272 336.122 115.356C339.403 114.746 340.624 115.127 341.539 115.89C342.226 116.424 343.142 116.119 343.523 115.356L344.21 114.059C344.515 113.448 344.286 112.685 343.676 112.228C342.302 111.312 339.403 109.938 335.817 109.938C331.162 109.938 323.684 115.127 323.684 120.011V125.504C323.684 126.191 323.074 126.878 322.311 126.878C321.624 126.878 320.938 127.488 320.938 128.251V132.906C320.937 133.593 321.548 134.203 322.387 134.203Z" fill="white"/>
<path d="M169.857 156.407H178.937V172.355L169.704 172.736V180.901L195.876 179.451V172.049H187.559V156.331H195.266V147.938L169.704 148.243L169.857 156.407Z" fill="#A1A2A8"/>
<path d="M199.462 147.938H225.863V154.729H207.397V159.612H225.863V179.298H199.462V170.981H219.606V166.403H199.462V147.938Z" fill="#A1A2A8"/>
<path d="M257.453 145.648V175.865H248.526L248.373 164.495H238.225V177.467H230.061V147.632H238.149V158.162H247.992V145.648H257.453Z" fill="#A1A2A8"/>
<path d="M263.023 152.515H276.911V173.651H284.007V143.816L263.023 144.427V152.515Z" fill="#A1A2A8"/>
<path d="M287.212 172.812H296.674V157.628L303.922 171.973H314.529V142.825H305.601V159.688L297.513 144.046H287.212V172.812Z" fill="#A1A2A8"/>
<path d="M316.894 139.849L316.97 169.76H325.058V156.102H335.817V168.082H344.21V138.934H336.046V150.15H325.134L325.058 139.849H316.894Z" fill="#A1A2A8"/>
<path d="M367.941 137.026H358.251L349.399 153.203V167.395H357.488V157.628H366.568V166.327H374.961V153.05L367.941 137.026ZM365.423 152.974H357.945V149.845L361.913 144.657L365.499 149.54V153.05H365.423V152.974Z" fill="#A1A2A8"/>
<path d="M175.046 60.1882H161.921C161.235 60.1882 160.548 59.5777 160.548 58.8147V46.4535C160.548 45.7668 161.158 45.0801 161.921 45.0801H175.046C175.732 45.0801 176.419 45.6905 176.419 46.4535V58.8147C176.343 59.5777 175.732 60.1882 175.046 60.1882Z" fill="white"/>
</svg>
